<?xml version="1.0" encoding="utf-8"?>
<!-- Generator: Adobe Illustrator 24.0.1, SVG Export Plug-In . SVG Version: 6.00 Build 0)  -->
<svg version="1.1" id="Layer_1" xmlns="http://www.w3.org/2000/svg" xmlns:xlink="http://www.w3.org/1999/xlink" x="0px" y="0px"
	 width="512px" height="512px" viewBox="0 0 512 512" style="enable-background:new 0 0 512 512;" xml:space="preserve">
<style type="text/css">
	.st0{fill:#FFFFFF;stroke:#FFFFFF;stroke-miterlimit:10;}
</style>
<g>
	<g>
		<path class="st0" d="M341.3,47H170.7C76.4,47,0,123.4,0,217.6s76.4,170.7,170.7,170.7h124.5l74.3,74.3c3.4,3.3,8.8,3.2,12.1-0.1
			c1.6-1.6,2.4-3.7,2.4-5.9v-73.7c75.3-19.5,128-87.4,128-165.2C512,123.4,435.6,47,341.3,47z M449.9,326.2
			c-20.8,21-47.3,35.4-76.2,41.6c-4,0.9-6.8,4.4-6.7,8.5V436l-62.2-62.2c-1.6-1.6-3.8-2.6-6.1-2.6h-128
			c-84.8,0-153.6-68.8-153.6-153.6S85.8,64,170.7,64h170.7c84.8,0.1,153.5,68.9,153.5,153.7C494.8,258.4,478.6,297.4,449.9,326.2z"
			/>
	</g>
</g>
</svg>
