<svg id="Layer_1" data-name="Layer 1" xmlns="http://www.w3.org/2000/svg" viewBox="0 0 512 512"><title>cursos</title><path d="M460.8,362.82H435.2v-25.6a8.53,8.53,0,0,0-8.53-8.53H392.53a8.53,8.53,0,0,0-8.53,8.53v25.6H358.4a8.53,8.53,0,0,0-8.53,8.53v34.14A8.53,8.53,0,0,0,358.4,414H384v25.6a8.53,8.53,0,0,0,8.53,8.53h34.14a8.53,8.53,0,0,0,8.53-8.53V414h25.6a8.53,8.53,0,0,0,8.53-8.53V371.35A8.53,8.53,0,0,0,460.8,362.82ZM452.27,397h-25.6a8.53,8.53,0,0,0-8.54,8.53v25.6H401.07v-25.6a8.53,8.53,0,0,0-8.54-8.53h-25.6V379.89h25.6a8.53,8.53,0,0,0,8.54-8.53v-25.6h17.06v25.6a8.53,8.53,0,0,0,8.54,8.53h25.6Z" style="fill:#fff"/><path d="M469.33,106.82H238.93a25.6,25.6,0,0,1-25.6-25.6V64.15a42.66,42.66,0,0,0-42.66-42.66h-128A42.66,42.66,0,0,0,0,64.15V405.49a42.66,42.66,0,0,0,42.67,42.66h284A102.4,102.4,0,0,0,512,388.42V149.49A42.66,42.66,0,0,0,469.33,106.82ZM409.6,473.76a85.34,85.34,0,1,1,85.33-85.34A85.33,85.33,0,0,1,409.6,473.76Zm85.33-141.91a103.7,103.7,0,0,0-7-9.31l-2.14-2.38c-1.87-2.05-3.75-4-5.71-6l-2.91-2.56c-2-1.7-4-3.41-6.14-4.95l-2.9-2.22a95.69,95.69,0,0,0-8.53-5.37l-1.11-.68a101.3,101.3,0,0,0-10.33-4.87L445,292.34c-2.56-.94-5.21-1.8-7.86-2.56l-3.84-1c-2.64-.59-5.37-1.11-8.1-1.53l-3.67-.6A101.9,101.9,0,0,0,308,375.28a103.08,103.08,0,0,0-.76,13.14,64.41,64.41,0,0,0,.51,9.9v2.48a44.16,44.16,0,0,0,1.54,9.38c.68,3.16,1.62,6.32,2.56,9.39l.77,2.22c1,2.9,2.13,5.8,3.41,8.53H42.67a25.6,25.6,0,0,1-25.6-25.6v-204H494.93V331.85Zm0-148.23H17.07V64.15a25.6,25.6,0,0,1,25.6-25.6h128a25.61,25.61,0,0,1,25.6,25.6V81.22a42.66,42.66,0,0,0,42.66,42.67h230.4a25.6,25.6,0,0,1,25.6,25.6v34.13Z" style="fill:#fff"/></svg>