<?xml version="1.0" encoding="utf-8"?>
<!-- Generator: Adobe Illustrator 24.0.1, SVG Export Plug-In . SVG Version: 6.00 Build 0)  -->
<svg version="1.1" id="Layer_1" xmlns="http://www.w3.org/2000/svg" xmlns:xlink="http://www.w3.org/1999/xlink" x="0px" y="0px"
	 width="512px" height="512px" viewBox="0 0 512 512" style="enable-background:new 0 0 512 512;" xml:space="preserve">
<style type="text/css">
	.st0{fill:#EBEBEB;}
	.st1{fill:#FFFFFF;}
</style>
<g>
	<g>
		<polygon points="107.6,458.9 74.6,88.6 437.4,88.6 404.3,458.8 255.8,500 		"/>
		<polygon points="256,468.5 376,435.2 404.3,118.9 256,118.9 		"/>
		<g>
			<polygon class="st0" points="256,256.2 195.9,256.2 191.8,209.7 256,209.7 256,164.3 255.8,164.3 142.1,164.3 143.2,176.5 
				154.4,301.6 256,301.6 			"/>
			<polygon class="st0" points="256,374.2 255.8,374.2 205.2,360.6 202,324.3 177.4,324.3 156.4,324.3 162.8,395.6 255.8,421.5 
				256,421.4 			"/>
		</g>
		<g>
			<polygon class="st1" points="255.8,256.2 255.8,301.6 311.8,301.6 306.5,360.5 255.8,374.2 255.8,421.4 348.9,395.6 349.6,388 
				360.3,268.4 361.4,256.2 349.2,256.2 			"/>
			<polygon class="st1" points="255.8,164.3 255.8,192.5 255.8,209.6 255.8,209.7 365.4,209.7 365.4,209.7 365.5,209.7 366.4,199.5 
				368.5,176.5 369.6,164.3 			"/>
		</g>
	</g>
</g>
</svg>
