<?xml version="1.0" encoding="utf-8"?>
<!-- Generator: Adobe Illustrator 24.0.1, SVG Export Plug-In . SVG Version: 6.00 Build 0)  -->
<svg version="1.1" id="Capa_1" xmlns="http://www.w3.org/2000/svg" xmlns:xlink="http://www.w3.org/1999/xlink" x="0px" y="0px"
	 width="1771px" height="2109.9px" viewBox="0 0 1771 2109.9" style="enable-background:new 0 0 1771 2109.9;" xml:space="preserve"
	>
<style type="text/css">
	.st0{fill:#E44D26;}
	.st1{fill:#F16529;}
	.st2{fill:#EBEBEB;}
	.st3{fill:#FFFFFF;}
</style>
<g>
	<path class="st0" d="M161.2,1909L0,101.3h1771l-161.3,1807.4l-725.2,201.1L161.2,1909z"/>
	<path class="st1" d="M885.5,1956.1l586-162.5l137.9-1544.5H885.5V1956.1z"/>
	<path class="st2" d="M885.5,919.6H592.1l-20.3-227h313.6V470.8H329.6l5.3,59.5l54.5,611h496.1V919.6z M885.5,1495.4l-1,0.3
		l-246.9-66.7l-15.8-176.8H399.3l31.1,348.1l454.2,126.1l1-0.3V1495.4z"/>
	<path class="st3" d="M884.7,919.6v221.7h273l-25.7,287.5l-247.3,66.7v230.7l454.5-126l3.3-37.5l52.1-583.7l5.4-59.5h-59.7
		L884.7,919.6z M884.7,470.8v221.7h535.5l4.4-49.8l10.1-112.4l5.3-59.5L884.7,470.8z"/>
</g>
</svg>
