<?xml version="1.0" encoding="utf-8"?>
<!-- Generator: Adobe Illustrator 24.0.1, SVG Export Plug-In . SVG Version: 6.00 Build 0)  -->
<svg version="1.1" xmlns="http://www.w3.org/2000/svg" xmlns:xlink="http://www.w3.org/1999/xlink" x="0px" y="0px" width="303.6px"
	 height="324.6px" viewBox="0 0 303.6 324.6" style="enable-background:new 0 0 303.6 324.6;" xml:space="preserve">
<style type="text/css">
	.st0{fill:#FFFFFF;}
	.st1{fill:#D31081;}
	.st2{fill:#020203;}
	.st3{fill:#FFFFFF;stroke:#000000;stroke-miterlimit:10;}
	.st4{fill:#1A1A1A;}
	.st5{fill:#E5087E;}
</style>
<g id="BACKGROUND">
</g>
<g id="OBJECTS">
	<g>
		<g>
			<path class="st0" d="M204.9,99.3c6.3,14.6,9.4,25.7,9.4,63.2c0,29.3-22.3,57.9-56.4,60.2c-32.1,2.2-65.4-11.3-75.3-58.5
				c-10-47.1,4.2-84.6,45-95.1C168.2,58.7,197.5,82.1,204.9,99.3z"/>
			<path d="M151.2,223.8c-36.4,0-61.6-21.3-69.6-59.4c-10.6-50.1,6.4-86,45.6-96.1c23.2-5.9,41-0.7,51.8,4.7
				c14.5,7.3,23.3,18.1,26.6,25.8l0,0c6.4,14.9,9.4,26,9.4,63.5c0,28.1-21.4,58.7-57.2,61.1C155.6,223.7,153.4,223.8,151.2,223.8z
				 M147.2,67.5c-6.2,0-12.8,0.8-19.6,2.5c-38.2,9.8-54.8,45-44.3,94.1c11.4,53.9,51.6,59.3,74.5,57.8c34.8-2.4,55.6-32.1,55.6-59.4
				c0-37.2-3-48.2-9.3-62.9l0,0C197.7,84.9,176.4,67.5,147.2,67.5z"/>
		</g>
		<g>
			<path class="st2" d="M85.9,168.7c0,0,6.7,9.2,27.5,15.3c20.8,6,27.2-1.3,38.3-1.3s9.4,2.8,26.9,3.5c17.5,0.7,29.3-12.9,34.3-20.6
				c0,0,16.2,60.7-61.1,60.7C81.3,226.2,85.9,168.7,85.9,168.7z"/>
			<path class="st2" d="M151.6,227c-23.4,0-41.1-6.3-52.5-18.7c-15.6-16.9-14-39.4-14-39.6l0.2-2.1l1.2,1.7c0.1,0.1,6.8,9.1,27.1,15
				c13.6,3.9,21.1,2,27.6,0.3c3.4-0.9,6.7-1.7,10.5-1.7c5.3,0,7.8,0.6,10.6,1.3c3.3,0.8,7,1.8,16.3,2.2
				c18.7,0.8,30.4-15.3,33.6-20.3l0.9-1.5l0.5,1.7c0.1,0.2,6.2,23.8-7.5,41.6C195.8,220.2,177.5,227,151.6,227
				C151.7,227,151.7,227,151.6,227z M86.6,170.7c0,5.7,1.1,23,13.6,36.5c11.2,12.1,28.5,18.2,51.4,18.2c0,0,0,0,0,0
				c25.4,0,43.2-6.5,53.1-19.4c11.1-14.4,8.7-32.9,7.6-38.6c-4.3,6.3-16,20.2-33.9,19.4c-9.4-0.4-13.4-1.4-16.6-2.2
				c-2.9-0.7-5.1-1.3-10.2-1.3c-3.6,0-6.8,0.8-10.1,1.7c-6.7,1.7-14.4,3.7-28.4-0.4C97.2,180.1,89.5,173.6,86.6,170.7z"/>
		</g>
		<g>
			<path class="st2" d="M204.1,63.3c47.4,17.5,33.6,96.5,29.4,99.7c-5.4,4-13.6,2.9-18.8-1.4s2.7-2-1.5-7.3
				c-12.4-15.7-18.6-50.2-24-60.9c-2.7-5.4-5.2-11.4-4.4-17.4c0.8-6,6-11.9,12.1-11.2"/>
			<path class="st2" d="M225.4,166.3c-3.9,0-8-1.4-11.2-4.1c-1.5-1.3-2.1-2.1-2.1-2.9c0-0.8,0.6-1.2,1-1.5c0.4-0.3,0.6-0.5,0.6-0.7
				c0-0.3-0.1-0.9-1.1-2.2c-8.2-10.3-13.6-28.6-18-43.2c-2.3-7.6-4.2-14.2-6.1-17.8c-2.8-5.6-5.3-11.6-4.5-17.8
				c0.8-6.2,6.3-12.6,12.9-11.8l-0.2,1.5c-5.7-0.7-10.5,5-11.2,10.5c-0.7,5.8,1.7,11.6,4.4,17c1.9,3.8,3.9,10.4,6.2,18.1
				c4.3,14.5,9.8,32.6,17.8,42.7c1.1,1.4,1.5,2.4,1.4,3.4c-0.1,0.9-0.7,1.4-1.2,1.8c-0.1,0.1-0.4,0.3-0.4,0.4c0,0,0,0.4,1.6,1.7
				c5.3,4.4,13,5,17.9,1.4c1.7-1.3,7.3-24.5,3.6-50.1c-2.5-17.4-10.2-39.9-32.8-48.2l0.5-1.4c23.3,8.6,31.3,31.7,33.8,49.5
				c3.4,23.8-1.4,49.3-4.3,51.5C231.5,165.4,228.5,166.3,225.4,166.3z"/>
		</g>
		<g>
			<path class="st2" d="M89.8,71.6c-9.9,2.5-23.5,16.2-29.5,26c-1.3,2.1-2.5,4.3-2.9,6.8c-0.3,2.4,0.5,5.2,2.5,6.6
				c2,1.4,5.4,0.8,6.3-1.5c-4.6,5.3-9.2,10.8-11.6,17.4c-1.6,4.6-1.8,9.9-0.2,14.3c1.1,3.1,5,4,7.6,1.9l0,0
				c-3,4.9-2.5,11.6,1.1,16.1c3.6,4.5,10.1,6.3,15.5,4.4"/>
			<path class="st2" d="M74.2,165.1c-4.4,0-8.9-2-11.7-5.4c-3.3-4.1-4.1-10-2.2-14.9c-0.9,0.2-1.9,0.2-2.9,0
				c-1.7-0.5-3.1-1.7-3.7-3.3c-1.6-4.4-1.6-9.8,0.2-14.9c1.9-5.3,5.3-10,8.7-14.1c-1.1,0-2.3-0.3-3.1-0.9c-2.1-1.4-3.2-4.3-2.8-7.3
				c0.3-2.7,1.7-5.1,3-7.1c5.8-9.3,19.4-23.7,30-26.3l0.4,1.5C80.8,74.6,67.3,87.7,60.9,98c-1.2,1.9-2.4,4.1-2.7,6.5
				c-0.3,2.4,0.5,4.7,2.2,5.8c0.9,0.6,2.1,0.8,3.3,0.4c0.3-0.1,0.5-0.2,0.7-0.3c0.4-0.5,0.9-1,1.3-1.5l3-3.5l-1.7,4.3
				c-0.3,0.8-0.9,1.4-1.6,1.9c-3.9,4.5-7.9,9.6-10,15.5c-1.6,4.7-1.7,9.7-0.2,13.8c0.4,1.2,1.4,2,2.6,2.4c1.3,0.3,2.7,0.1,3.7-0.8
				l3.5-2.9l-2.3,3.8c-2.8,4.6-2.4,11,1,15.2c3.4,4.2,9.6,6,14.7,4.2l0.5,1.4C77.4,164.8,75.8,165.1,74.2,165.1z"/>
		</g>
		<g>
			<path class="st2" d="M208.1,65.1c8.8,2.5,27.5,21.5,32.9,31.4c1.1,2.1,2.2,4.4,2.5,6.9c0.3,2.5-0.4,5.3-2.2,6.7
				c-1.8,1.4-4.7,0.8-5.6-1.5c4,5.4,8.2,11,10.2,17.7c1.4,4.7,1.6,10,0.1,14.6c-1,3.1-4.5,4-6.7,1.9l0,0c2.6,5,2.2,11.8-0.9,16.4
				c-3.2,4.5-8.9,6.4-13.7,4.5"/>
			<path class="st2" d="M228.6,165.1c-1.4,0-2.8-0.3-4.2-0.8l0.6-1.4c4.4,1.8,9.8,0,12.8-4.2c3-4.3,3.4-10.8,0.9-15.6l-2.2-4.1
				l3.4,3.2c0.8,0.8,1.9,1.1,3,0.8c1.1-0.3,2-1.2,2.4-2.4c1.4-4.2,1.3-9.3-0.1-14.1c-1.8-5.9-5.4-11.1-8.8-15.7
				c-0.6-0.5-1.1-1.1-1.4-1.9l-1.6-4.7l3,4c0.4,0.5,0.8,1,1.1,1.5c0.3,0.2,0.5,0.3,0.7,0.3c0.9,0.3,1.9,0.1,2.6-0.5
				c1.7-1.3,2.2-3.9,1.9-6c-0.3-2.4-1.4-4.7-2.4-6.6c-5.3-9.9-24-28.6-32.4-31l0.4-1.5c8.9,2.5,27.7,21.4,33.3,31.8
				c1.1,2,2.3,4.5,2.6,7.2c0.3,3-0.6,5.9-2.5,7.4c-0.8,0.6-1.8,1-2.8,0.9c3.1,4.3,6.1,9,7.7,14.4c1.5,5.1,1.6,10.5,0.1,15
				c-0.6,1.7-1.9,3-3.5,3.5c-0.8,0.2-1.6,0.2-2.3,0c1.7,4.9,1,10.9-1.9,15.1C236.5,163.1,232.5,165.1,228.6,165.1z"/>
		</g>
		<path class="st4" d="M91.6,74.1c-4-2-11.1-7.8-7.6-10.6c2.1-1.7,4.9,2.7,6.4,5c-0.5-2.5-1.1-5-1.6-7.6c-0.1-0.6-0.3-1.3-0.1-2
			c0.1-0.6,0.6-1.3,1.2-1.4c1-0.2,1.7,0.8,2.2,1.6c2.3,4.1,3.8,8.5,4.3,13.2"/>
		<path class="st2" d="M130.6,162.7c0,3.5-2.3,6.4-5.2,6.4c-2.9,0-5.2-2.9-5.2-6.4c0-3.5,2.3-6.4,5.2-6.4
			C128.3,156.4,130.6,159.2,130.6,162.7z"/>
		<path class="st2" d="M175.5,162.7c0,3.5,2.3,6.4,5.2,6.4c2.9,0,5.2-2.9,5.2-6.4c0-3.5-2.3-6.4-5.2-6.4
			C177.9,156.4,175.5,159.2,175.5,162.7z"/>
		<g>
			<g>
				<path class="st2" d="M79.9,188.3C79.9,188.3,79.9,188.3,79.9,188.3C79.9,188.3,79.9,188.3,79.9,188.3z"/>
			</g>
		</g>
		<g>
			<g>
				<path class="st2" d="M226.2,188.3C226.2,188.3,226.2,188.3,226.2,188.3C226.2,188.3,226.2,188.3,226.2,188.3z"/>
			</g>
		</g>
		<g>
			<path class="st2" d="M231.4,103.2c-1-4.1-1.7-8.8-3.9-12.5c-2.1-3.4-7.7-6.2-11.5-8c-1.5-0.7-3.2-1.4-4-2.7
				c-1.1-1.6-0.6-3.7,0-5.5c0.2-0.7,0.4-1.4,0.6-2c-0.3-5.6-2.1-10.8-4.6-15.8c-0.8-1.1-1.6-2.2-2.4-3.2c0.3,2.3,0.4,4.5,0.4,6.8
				c-0.1,6.2,0.7,4.5-5.5,7.7c0.4-7.4-1.9-7.9-7.3-13.6c-4.5-4.7-11.9-6.7-18.9-6.5c-7,0.2-13.8,2.3-20.3,4.5
				c-7,2.4-14.7,5-21.8,2.9c-1.6-0.5-3-1.2-4.3-2c-4.3-1.8-8.6-4-12.2-6.7c0.3,2.5,1,4.9,2,7.2c-21.3-1.5-43,10.1-51.1,27.3
				c3.5-3.7,8.9-6,14.5-6.2c-10.2,11.2-15.4,25.7-14.4,40c0.9-4.2,3.6-8,7.5-10.6c4.9,14.4,6.2,29.7,3.8,44.6
				c1.6-7.9,3.8-15.7,6.5-23.3c1.8-5.1,3.9-10.3,7.8-14.4c3.9-4.2,9.8-7.2,16-6.7c-1.5,7.7-5.5,15-11.3,21
				c14.2-6.6,26.4-16.3,35.3-27.9c1.3,13.7,7.4,27,17.3,37.7c-3.9-7,0.9-15.7,8-20.4c7.1-4.8,16.1-6.8,24.3-9.8
				c8.1-2.9,16.2-7.3,19.5-14.3c9.3,14.1,15.8,29.6,19,45.6c10.2-9.8,11.8-25.6,3.6-36.8C226.4,100.4,228.9,101.8,231.4,103.2z"/>
			<path class="st2" d="M78.8,148.6l-1.9-0.3c2.3-14.2,1.1-29.1-3.4-42.9c-3.1,2.4-5.3,5.8-6.1,9.3l-1.4,6.3l-0.5-6.5
				c-1-13.7,3.8-27.8,13.1-38.9c-4.5,0.7-8.6,2.7-11.5,5.7l-4,4.2l2.5-5.3c8.1-17.2,29.2-28.8,50.5-27.9c-0.7-1.9-1.2-4-1.5-6.1
				l-0.3-2.2l1.8,1.3c3.2,2.4,7.1,4.6,12,6.6l0.2,0.1c1.3,0.9,2.6,1.5,4.1,1.9c6.8,2,14.5-0.6,21.2-2.8c6.5-2.2,13.4-4.4,20.6-4.6
				c8.1-0.2,15.4,2.3,19.6,6.8c1,1,1.9,1.9,2.6,2.7c3.3,3.3,5,4.9,5,10.1c0.5-0.2,0.9-0.4,1.3-0.6c2.3-1.1,2.3-1.1,2.3-3.8
				c0-0.5,0-1.1,0-1.8c0-2.1-0.1-4.4-0.3-6.6l-0.4-3.3l2.1,2.6c0.8,1.1,1.6,2.2,2.4,3.3c3.1,6.2,4.5,11.3,4.8,16.3l0,0.2l-0.7,2.2
				c-0.5,1.7-0.9,3.4-0.1,4.7c0.7,1,2,1.6,3.3,2.3l0.3,0.1c5,2.4,9.8,5,11.9,8.4c1.9,3.2,2.8,7.1,3.5,10.6c0.2,0.8,0.3,1.5,0.5,2.2
				l0.5,2.1l-6.2-3.4c6.1,11.2,4,25.6-5.7,34.9l-1.2,1.2l-0.3-1.7c-3.1-15.4-9.2-30.2-18-43.9c-3.2,5.4-9.6,9.9-19.3,13.3
				c-2.1,0.8-4.3,1.5-6.5,2.2c-6.1,2-12.5,4-17.6,7.5c-6.5,4.3-11.4,12.5-7.7,19.2l3.8,6.9l-5.3-5.8c-9.4-10.2-15.5-22.9-17.3-35.9
				c-8.9,10.9-20.7,20-34.2,26.3l-4.8,2.2l3.7-3.8c5.5-5.6,9.2-12.2,10.9-19.4c0,0,0,0-0.1,0c-5,0-10.3,2.4-14.1,6.5
				c-3.9,4.2-6,9.5-7.6,14.1C82.6,133,80.4,140.8,78.8,148.6z M74.6,102.4l0.4,1.2c3.6,10.4,5.3,21.4,5,32.4
				c1.1-3.7,2.2-7.4,3.5-11.1c1.7-4.8,3.9-10.3,8-14.8c4.5-4.8,10.9-7.5,16.8-7l1.1,0.1l-0.2,1c-1.2,6.4-4.1,12.5-8.3,17.8
				c12.2-6.4,22.7-15.1,30.6-25.4l1.5-1.9l0.2,2.4c1.1,12,6.1,23.8,14.1,33.7c-0.7-6.5,3.9-13.2,9.7-17.1c5.4-3.6,11.9-5.7,18.1-7.7
				c2.2-0.7,4.3-1.4,6.5-2.2c10-3.6,16.4-8.2,19-13.8l0.7-1.5l0.9,1.4c9.1,13.8,15.4,28.7,18.8,44.2c8.8-9.5,9.8-24,2.3-34.3
				l-2.5-3.4l9.5,5.1c0-0.1,0-0.1,0-0.2c-0.8-3.5-1.5-7.1-3.3-10c-2-3.3-8.1-6.3-11.1-7.7l-0.3-0.1c-1.5-0.7-3.2-1.5-4.1-2.9
				c-1.3-2-0.8-4.3-0.2-6.3l0.6-1.9c-0.2-4.7-1.7-9.5-4.5-15.3c-0.1-0.2-0.2-0.3-0.3-0.5c0.1,1.2,0.1,2.4,0.1,3.6c0,0.7,0,1.2,0,1.7
				c0,3.7-0.2,4-3.4,5.5c-0.7,0.3-1.6,0.7-2.6,1.3l-1.5,0.7l0.1-1.6c0.3-5.6-0.9-6.8-4.4-10.2c-0.8-0.8-1.7-1.6-2.7-2.7
				c-3.9-4.1-10.7-6.4-18.2-6.2c-7,0.2-13.7,2.3-20,4.5c-7,2.4-14.9,5.1-22.3,2.9c-1.6-0.5-3.1-1.2-4.5-2.1
				c-4.1-1.7-7.5-3.5-10.5-5.5c0.4,1.7,0.9,3.3,1.5,4.8l0.6,1.4l-1.6-0.1c-19.3-1.3-38.7,8-47.9,22.6c3.3-2.1,7.3-3.3,11.3-3.4
				l2.3-0.1l-1.5,1.7c-8.9,9.8-13.9,22.1-14.3,34.5c1.4-2.6,3.5-4.9,6.1-6.6L74.6,102.4z"/>
		</g>
	</g>
	<g>
		<path class="st2" d="M79.1,162.7c-1.4,0.2-2.8,1.7-3.7,2.7c-1,1.1-1.9,2.4-2.6,3.8c-1.2,2.5-1.5,5.3-1,8.1c1.1,6,6.5,9.4,12,10.9
			c1.7,0.5,3.6,0.8,5.4,0.9c1.6,0.1,4,0.3,5.4-0.8c0.5-0.4,0.2-1.2-0.3-1.3c-1.3-0.3-2.9,0.1-4.2,0.1c-1.4,0-2.9-0.2-4.3-0.5
			c-2.7-0.6-5.4-1.6-7.7-3.2c-1.9-1.3-3.4-3-4.2-5.3c-0.8-2.3-0.8-4.8,0-7.2c0.4-1.5,1.2-2.8,2.1-4c0.5-0.7,1.2-1.4,1.8-2
			c0.6-0.6,1.4-1.1,1.7-1.8C79.3,162.9,79.3,162.6,79.1,162.7L79.1,162.7z"/>
		<path class="st2" d="M80.1,171.3c-1.5,1.1-2.7,3.1-2.1,5c0.6,1.9,2.6,2.8,4.5,2.9c0.8,0,0.9-1.3,0-1.3c-1.3,0-3-0.6-3.4-2
			c-0.5-1.5,0.6-3.1,1.6-4.1C81,171.6,80.5,171,80.1,171.3L80.1,171.3z"/>
	</g>
	<g>
		<path class="st2" d="M221,159.1c0.3,0.6,0.9,1,1.4,1.5c0.6,0.6,1.2,1.1,1.7,1.8c0.9,1.1,1.6,2.2,2.2,3.5c1,2.3,1.2,5,0.6,7.4
			c-1.3,5.1-6.1,7.8-10.9,9.1c-1.6,0.4-3.2,0.7-4.9,0.8c-0.8,0-1.7,0-2.5-0.1c-0.8-0.1-1.6-0.3-2.3-0.1c-0.7,0.2-0.8,1.1-0.2,1.5
			c1.2,0.9,3.3,0.7,4.7,0.7c1.7,0,3.3-0.3,4.9-0.7c3-0.7,5.9-2,8.4-3.9c2.1-1.6,3.6-3.7,4.3-6.3c0.7-2.7,0.6-5.5-0.4-8.1
			c-0.6-1.6-1.5-3-2.6-4.3c-1-1.1-2.6-3.1-4.1-3.2C221,158.7,221,159,221,159.1L221,159.1z"/>
		<path class="st2" d="M219.7,168c1,1,2.1,2.6,1.6,4.1c-0.4,1.4-2.1,1.9-3.4,2c-0.8,0-0.9,1.3,0,1.3c1.9-0.1,4-1,4.5-2.9
			c0.5-2-0.7-3.9-2.2-5.1C219.8,167.1,219.4,167.7,219.7,168L219.7,168z"/>
	</g>
	<path class="st0" d="M139.4,193c1.6,2.2,3.9,3.7,6.3,4.6c2.4,0.9,5.1,1.3,7.6,1.1c2.6-0.2,5.1-1,7.6-2c2.4-1.1,4.8-2.4,7.1-3.8
		c-1.9,2-4.1,3.7-6.5,5c-2.4,1.3-5.2,2.2-8,2.5c-2.8,0.2-5.7-0.3-8.3-1.5C142.6,197.6,140.4,195.5,139.4,193z"/>
	<g>
		<path class="st2" d="M170.1,135.7c-0.7,0-0.1,1,0.6,1.2c8.9,2.2,18.8,0.2,27.3,3.1c-1.1-2.4-4.5-3.3-7.5-3.9
			c-5.8-1-11.8-1.7-17.7-2c-0.8,0-1.8-0.1-2.4,0.4c-0.7,0.4-0.7,1.5,0.1,1.7"/>
	</g>
	<g>
		<path class="st2" d="M136.7,137.2c0.7,0,0.1,1-0.6,1.2c-8.9,2.2-18.8,0.2-27.3,3.1c1.1-2.4,4.5-3.3,7.5-3.9c5.8-1,11.8-1.7,17.7-2
			c0.8,0,1.8-0.1,2.4,0.4c0.7,0.4,0.7,1.5-0.1,1.7"/>
	</g>
	<path class="st4" d="M125,235.5c-9.3,17.8-17.4,36.2-24.3,55c-2,5.4-3.8,10.8-5.6,16.3c-0.3,1,1.3,1.5,1.6,0.5
		c6.2-19.1,13.6-37.7,22.3-55.9c2.4-5.1,4.9-10.1,7.5-15C126.9,235.4,125.5,234.5,125,235.5L125,235.5z"/>
	<g>
		<g>
			<path class="st1" d="M153.5,278.2c1.9,0,2-3,0-3C151.6,275.3,151.5,278.2,153.5,278.2L153.5,278.2z"/>
		</g>
	</g>
	<g>
		<g>
			<path class="st1" d="M152.6,294.2c1.9,0,2-3,0-3C150.7,291.2,150.7,294.2,152.6,294.2L152.6,294.2z"/>
		</g>
	</g>
	<path d="M126,235.3c7.2,5.7,14.5,11.5,21.7,17.2c1.7,1.3,3.3,2.8,5.1,3.9c1.5,0.9,3.2,1.3,4.8,0.7c1.8-0.7,3.2-2.2,4.6-3.4
		c1.8-1.5,3.6-3.1,5.4-4.6c3.9-3.4,7.9-6.7,11.8-10.1c0.8-0.7-0.3-1.9-1.2-1.2c-3.3,2.8-6.6,5.6-9.9,8.5c-3.3,2.8-6.5,5.7-9.8,8.3
		c-0.7,0.6-1.5,1.1-2.5,1.2c-1,0.1-2-0.4-2.8-0.9c-1.7-1.1-3.3-2.5-4.8-3.7c-3.4-2.7-6.8-5.4-10.2-8.1c-3.8-3-7.7-6.1-11.5-9.1
		C126.1,233.2,125.2,234.6,126,235.3L126,235.3z"/>
	<path class="st4" d="M133.3,222.3c-0.6,5.5-0.3,11.1,0.8,16.5c0.2,1.1,1.9,0.7,1.6-0.4c-1.1-5.3-1.3-10.7-0.7-16.1
		C135.1,221.3,133.4,221.2,133.3,222.3L133.3,222.3z"/>
	<path class="st4" d="M172.9,223.5c-0.5,5.8-1,11.6-1.4,17.4c-0.1,1.1,1.6,1.1,1.7,0c0.5-5.8,1-11.6,1.4-17.4
		C174.6,222.4,172.9,222.4,172.9,223.5L172.9,223.5z"/>
	<g>
		<g>
			<path class="st4" d="M172.3,243.7c0.6,0,0.7-1,0-1C171.7,242.7,171.6,243.7,172.3,243.7L172.3,243.7z"/>
		</g>
	</g>
	<path class="st4" d="M178.2,238.1c10.6,18,19.5,37,26.4,56.7c2,5.6,3.8,11.3,5.4,17c0.3,1,1.9,0.6,1.6-0.4
		c-5.8-20.2-13.6-39.9-23.3-58.5c-2.7-5.3-5.6-10.5-8.7-15.6C179.1,236.3,177.7,237.1,178.2,238.1L178.2,238.1z"/>
	<path class="st2" d="M150.7,175.8c-1.1,0-2.2-0.2-3.1-0.8c-1.1-0.7-1.7-1.9-1.8-3.4c-0.1-1.1,0.3-2.2,0.6-3.2
		c3.8-12.9,4.4-27.2,1.7-40.5l1.2-0.3c2.7,13.5,2.2,28-1.7,41c-0.3,1-0.6,1.9-0.5,2.9c0.1,1.1,0.5,1.9,1.2,2.4
		c1.4,0.9,3.6,0.7,5.2,0.1l0.5,1.2C153,175.5,151.8,175.8,150.7,175.8z"/>
	<g>
		<path class="st5" d="M13.2,67.6l-0.4-1.2l5.2-7.3l0.6,1.5l-4.2,5.8l0,0.1l7,1.7l0.6,1.5L13.2,67.6z"/>
		<path class="st5" d="M21,56l1.5-0.6l1.3,3.6l0.7,2.2l0.1,0c0.5-1.3,1.3-2.5,2.7-3c2.1-0.8,3.6,0.1,4.5,2.5l2.1,5.6l-1.5,0.6
			l-2-5.4c-0.6-1.7-1.5-2.3-3-1.7c-1.1,0.4-1.6,1.2-2.2,2.7l2.4,6.3l-1.5,0.6L21,56z"/>
		<path class="st5" d="M37.9,60.7l-1.6-4.3l-2.6,1l-0.4-1.2l2.6-1.1l-0.9-3l1.3-0.5l1.1,2.9l4.4-1.7l0.5,1.2l-4.4,1.7l1.6,4.3
			c0.6,1.6,1.5,2.3,3.2,1.6c0.8-0.3,1.4-0.7,2-1.2l0.8,1c-0.7,0.6-1.5,1.2-2.6,1.6C40.1,64.2,38.7,63,37.9,60.7z"/>
		<path class="st5" d="M44.2,52.1l1.2-0.5l0.6,1.1l0,0c0.2-1,0.5-1.8,1.5-2.2c0.9-0.3,1.6,0,2.3,0.9c0.2-1.2,0.5-2,1.5-2.4
			c1.3-0.5,2.4,0.2,3.1,2l2.4,6.5l-1.5,0.6L53,51.8c-0.4-1-0.9-1.5-1.6-1.2c-0.6,0.2-0.8,0.8-0.9,1.9l2.4,6.5l-1.4,0.5l-2.4-6.4
			c-0.4-1-0.9-1.5-1.5-1.2c-0.6,0.2-0.9,0.9-1,2l2.4,6.5l-1.5,0.6L44.2,52.1z"/>
		<path class="st5" d="M61.1,52.6l-3.4-9l-3.2,1.2l-0.5-1.2l4.7-1.8l3.9,10.3c0.5,1.3,1.4,1.6,2.5,1.2c0.5-0.2,1-0.5,1.5-1l0.8,1
			c-0.7,0.7-1.2,1.1-2.2,1.4C63.4,55.5,61.9,54.7,61.1,52.6z"/>
		<path class="st5" d="M69.9,50l4.2-5.8l0-0.1l-7-1.7L66.5,41l8.7,2.1l0.4,1.2l-5.2,7.3L69.9,50z"/>
		<path class="st5" d="M80.1,42.6l-0.4-1.2l5.2-7.3l0.6,1.5l-4.2,5.8l0,0.1l7,1.7l0.6,1.5L80.1,42.6z"/>
		<path class="st5" d="M94.1,28.6l1.4-0.5l0,18.5l-1.4,0.5L94.1,28.6z"/>
		<path class="st5" d="M99.1,26.8l1.5-0.6l1.3,3.6l0.7,2.2l0.1,0c0.5-1.3,1.3-2.5,2.7-3c2.1-0.8,3.6,0.1,4.5,2.5L112,37l-1.5,0.6
			l-2-5.4c-0.6-1.7-1.5-2.3-3-1.7c-1.1,0.4-1.6,1.2-2.2,2.7l2.4,6.3L104,40L99.1,26.8z"/>
		<path class="st5" d="M116,31.5l-1.6-4.3l-2.6,1l-0.4-1.2L114,26l-0.9-3l1.3-0.5l1.1,2.9l4.4-1.7l0.5,1.2l-4.4,1.7l1.6,4.3
			c0.6,1.6,1.5,2.3,3.2,1.6c0.8-0.3,1.4-0.7,2-1.2l0.8,1c-0.7,0.6-1.5,1.2-2.6,1.6C118.2,34.9,116.8,33.8,116,31.5z"/>
		<path class="st5" d="M122.3,22.9l1.2-0.5l0.6,1.1l0,0c0.2-1,0.5-1.8,1.5-2.2c0.9-0.3,1.6,0,2.3,0.9c0.2-1.2,0.5-2,1.5-2.4
			c1.3-0.5,2.4,0.2,3.1,2l2.4,6.5l-1.5,0.6l-2.4-6.4c-0.4-1-0.9-1.5-1.6-1.2c-0.6,0.2-0.8,0.8-0.9,1.9l2.4,6.5l-1.4,0.5l-2.4-6.4
			c-0.4-1-0.9-1.5-1.5-1.2c-0.6,0.2-0.9,0.9-1,2l2.4,6.5l-1.5,0.6L122.3,22.9z"/>
		<path class="st5" d="M139.2,23.4l-3.4-9l-3.2,1.2l-0.5-1.2l4.7-1.8l3.9,10.3c0.5,1.3,1.4,1.6,2.5,1.2c0.5-0.2,1-0.5,1.5-1l0.8,1
			c-0.7,0.7-1.2,1.1-2.2,1.4C141.5,26.2,140,25.5,139.2,23.4z"/>
		<path class="st5" d="M148,20.8l4.2-5.8l0-0.1l-7-1.7l-0.6-1.5l8.7,2.1l0.4,1.2l-5.2,7.3L148,20.8z"/>
	</g>
	<g>
		<path class="st5" d="M16.3,184.7l1-1.3l1.3,1l-1,1.3l-2.3,2.5l-0.7-0.5L16.3,184.7z M19.1,186.8l1-1.3l1.3,1l-1,1.3l-2.3,2.5
			l-0.7-0.5L19.1,186.8z"/>
		<path class="st5" d="M19.4,194.3l2.7-3.6l1,0.7l-2.6,3.5c-0.8,1.1-0.8,1.9,0.1,2.6c0.7,0.5,1.4,0.6,2.6,0.3l3-4l1,0.7l-4.3,5.8
			l-0.8-0.6l0.7-1.1l0,0c-1.1,0.2-2.1,0.2-3-0.4C18.3,197.1,18.2,195.8,19.4,194.3z"/>
		<path class="st5" d="M25.4,201l0.9-0.3c0.3,1,0.9,1.9,1.9,2.7c1,0.7,1.8,0.7,2.1,0.2c0.3-0.4,0.3-0.9-1-2.4
			c-1.3-1.4-1.7-2.5-1-3.4c0.7-0.9,2.1-1,3.7,0.1c0.9,0.7,1.5,1.7,1.8,2.5l-1,0.3c-0.3-0.8-0.8-1.5-1.5-2.1c-1-0.7-1.6-0.6-2-0.2
			c-0.4,0.5,0,1.1,1,2.2c1.6,1.9,1.7,2.7,1.1,3.6c-0.7,0.9-2.2,1.1-3.9-0.2C26.5,203.2,25.8,202,25.4,201z"/>
		<path class="st5" d="M34.2,204.2c1.4-1.9,3.7-2,5.2-0.8c1.7,1.2,1.9,3.1,0.6,4.7c-0.2,0.2-0.4,0.4-0.5,0.6l-4.9-3.7l0.6-0.8
			l4.3,3.2l-0.5,0.1c1-1.4,0.8-2.6-0.2-3.4c-1.1-0.8-2.6-0.7-3.7,0.8c-1.1,1.5-0.7,3,0.6,4c0.7,0.5,1.4,0.7,2.2,0.8l-0.1,0.9
			c-0.9,0-1.8-0.3-2.8-1C33.3,208.3,32.8,206.1,34.2,204.2z"/>
		<path class="st5" d="M47,217l0.9-0.3c0.3,1,0.9,1.9,1.9,2.7c1,0.7,1.8,0.7,2.1,0.2c0.3-0.4,0.3-0.9-1-2.4c-1.3-1.4-1.7-2.5-1-3.4
			c0.7-0.9,2.1-1,3.7,0.1c0.9,0.7,1.5,1.7,1.8,2.5l-1,0.3c-0.3-0.8-0.8-1.5-1.5-2.1c-1-0.7-1.6-0.6-2-0.2c-0.4,0.5,0,1.1,1,2.2
			c1.6,1.9,1.7,2.7,1.1,3.6c-0.7,0.9-2.2,1.1-3.9-0.2C48.1,219.2,47.4,218,47,217z"/>
		<path class="st5" d="M57,222.1l2-2.8l-1.7-1.2l0.6-0.7l1.7,1.2l1.5-1.8l0.8,0.6l-1.4,1.9l2.9,2.1l-0.6,0.8L60,220l-2.1,2.8
			c-0.8,1-0.8,1.8,0.3,2.7c0.5,0.4,1.1,0.6,1.6,0.8l-0.3,0.9c-0.7-0.2-1.3-0.5-2.1-1C55.7,224.9,55.9,223.5,57,222.1z"/>
		<path class="st5" d="M66.1,223.3l0.8,0.6l-0.9,1.5l0,0c1.3-0.5,2.7-0.4,3.7,0.4c0.4,0.3,0.7,0.6,1,1.1l-0.9,0.7
			c-0.3-0.4-0.5-0.7-0.9-1c-0.9-0.6-2-0.8-3.6-0.1l-2.5,3.4l-1-0.7L66.1,223.3z"/>
		<path class="st5" d="M74.7,230.9l-2.7-2l0.6-0.8l3.7,2.7l-4.3,5.8l-1-0.7L74.7,230.9z M76.4,227.9c0.3-0.5,0.9-0.5,1.4-0.2
			s0.6,0.9,0.2,1.4c-0.3,0.5-0.9,0.5-1.4,0.2C76.2,228.9,76,228.3,76.4,227.9z"/>
		<path class="st5" d="M77.5,236.3c1.4-2,3.8-2,5.5-0.7c0.9,0.7,1.4,1.6,1.5,2.4l-1,0.3c-0.2-0.8-0.5-1.4-1.1-1.8
			c-1.3-1-2.9-0.8-3.9,0.6c-1,1.3-0.7,2.9,0.6,3.9c0.7,0.5,1.6,0.7,2.3,0.6l0,1c-1.1,0.1-2.1-0.2-3-0.8
			C76.6,240.4,76.1,238.3,77.5,236.3z"/>
		<path class="st5" d="M85.8,243.4l2-2.8l-1.7-1.2l0.6-0.7l1.7,1.2l1.5-1.8l0.8,0.6l-1.4,1.9l2.9,2.1l-0.6,0.8l-2.9-2.1l-2.1,2.8
			c-0.8,1-0.8,1.8,0.3,2.7c0.5,0.4,1.1,0.6,1.6,0.8l-0.3,0.9c-0.7-0.2-1.3-0.5-2.1-1C84.5,246.2,84.7,244.9,85.8,243.4z"/>
		<path class="st5" d="M95.5,243.4l1-1.3l1.3,1l-1,1.3l-2.3,2.5l-0.7-0.5L95.5,243.4z M98.3,245.5l1-1.3l1.3,1l-1,1.3l-2.3,2.5
			l-0.7-0.5L98.3,245.5z"/>
		<path class="st5" d="M96.9,258.2c1.4,0.3,2.3,0,3.1-1l0.6-1.3l0,1.4c-0.4,0.1-0.6,0-0.9-0.2c-0.5-0.4-0.7-1-0.3-1.6
			c0.4-0.6,1.1-0.6,1.6-0.2c0.7,0.5,0.6,1.4-0.1,2.3c-1,1.4-2.6,1.8-4.2,1.3L96.9,258.2z M102.5,251.3c0.4-0.6,1.2-0.7,1.7-0.3
			c0.5,0.4,0.7,1.1,0.2,1.7c-0.5,0.6-1.2,0.7-1.7,0.3C102.1,252.6,102,251.9,102.5,251.3z"/>
	</g>
	<g>
		<path class="st5" d="M229.7,185.3c0-3.8,1.9-5.8,4.4-5.8c2.1,0,3.1,1.6,3.1,3.6v4.5h-0.8l-0.1-0.9h-0.1c-0.4,0.6-1.2,1.1-2,1.1
			c-1.1,0-1.9-0.8-1.9-2c0-1.5,1.4-2.3,4-2.6V183c0-1.4-0.7-2.7-2.2-2.7c-1.8,0-3.4,1.7-3.4,5c0,3.2,1.5,5.1,3.5,5.1
			c0.9,0,1.5-0.2,2.1-0.7l0.4,0.7c-0.8,0.5-1.6,0.8-2.6,0.8C231.8,191.3,229.7,189.2,229.7,185.3z M236.3,185.9v-1.9
			c-2.1,0.3-2.9,0.8-2.9,1.7c0,0.7,0.5,1.1,1.2,1.1C235.1,186.9,235.7,186.6,236.3,185.9z"/>
		<path class="st5" d="M242.8,182.8h-3.4v-1h4.6v7.3h-1.3V182.8z M242.3,179.3c0-0.6,0.4-1,1-1c0.6,0,1,0.4,1,1c0,0.6-0.4,1-1,1
			C242.7,180.3,242.3,179.9,242.3,179.3z"/>
		<path class="st5" d="M248,181.8h1l0.1,1h0c0.4-0.7,0.8-1.1,1.7-1.1c0.7,0,1.2,0.4,1.4,1.3c0.4-0.8,0.9-1.3,1.7-1.3
			c1,0,1.6,0.8,1.6,2.3v5.2h-1.2V184c0-0.8-0.2-1.3-0.8-1.3c-0.5,0-0.8,0.4-1.2,1.1v5.3h-1.1V184c0-0.8-0.2-1.3-0.8-1.3
			c-0.5,0-0.8,0.4-1.2,1.1v5.3H248V181.8z"/>
		<path class="st5" d="M257.5,181.8h1l0.1,0.9h0c0.7-0.6,1.6-1.1,2.5-1.1c2,0,3,1.5,3,3.7c0,2.5-1.6,3.9-3.3,3.9
			c-0.7,0-1.5-0.3-2.2-0.9h0l0.1,1.4v2.5h-1.3V181.8z M263,185.3c0-1.6-0.6-2.7-2.1-2.7c-0.6,0-1.4,0.3-2.1,1.1v3.6
			c0.7,0.6,1.4,0.8,1.9,0.8C262,188.2,263,187.2,263,185.3z"/>
		<path class="st5" d="M266.1,185.5c0-2.5,1.7-3.9,3.6-3.9s3.6,1.4,3.6,3.9c0,2.4-1.7,3.8-3.6,3.8S266.1,187.9,266.1,185.5z
			 M272,185.5c0-1.7-0.9-2.8-2.3-2.8c-1.4,0-2.3,1.1-2.3,2.8c0,1.7,0.9,2.8,2.3,2.8C271.1,188.3,272,187.1,272,185.5z"/>
		<path class="st5" d="M276.4,181.8h1l0.1,1.7h0c0.8-1.2,1.9-1.9,3.3-1.9c0.5,0,1,0.1,1.4,0.3L282,183c-0.5-0.2-0.8-0.2-1.4-0.2
			c-1.1,0-2.1,0.6-3,2.1v4.3h-1.3V181.8z"/>
		<path class="st5" d="M286.4,186.3v-3.5h-2.1v-0.9l2.1-0.1l0.2-2.4h1v2.4h3.6v1h-3.6v3.5c0,1.3,0.4,2,1.9,2c0.7,0,1.2-0.1,1.7-0.3
			l0.3,0.9c-0.7,0.2-1.4,0.4-2.3,0.4C287.1,189.3,286.4,188.1,286.4,186.3z"/>
	</g>
	<g>
		<path class="st5" d="M205.5,253.6l-3.9,0.9l-0.3-1.2l5.4-1.2l1.9,8.5l-1.4,0.3L205.5,253.6z M204,249.6c-0.1-0.7,0.2-1.2,0.9-1.4
			c0.7-0.1,1.3,0.2,1.4,0.9c0.1,0.7-0.2,1.2-0.9,1.4C204.7,250.6,204.2,250.3,204,249.6z"/>
		<path class="st5" d="M211.8,250.9l1.2-0.3l0.4,1.4l0.1,0c0.7-1.1,1.5-2.1,2.8-2.3c2-0.4,3.2,0.5,3.7,2.8l1.2,5.3l-1.4,0.3
			l-1.1-5.1c-0.4-1.6-1.1-2.2-2.5-1.9c-1,0.2-1.6,0.9-2.3,2.1l1.3,5.9l-1.4,0.3L211.8,250.9z"/>
		<path class="st5" d="M222.6,253c-0.6-2.8,0.8-4.9,2.9-5.3c1-0.2,1.9,0,2.8,0.5l0,0l-0.4-1.5l-0.7-3.3l1.4-0.3l2.7,12.4l-1.2,0.3
			l-0.4-1.1l-0.1,0c-0.5,0.9-1.4,1.7-2.5,1.9C225.1,257.1,223.3,255.8,222.6,253z M229.4,253.6l-0.9-4.2c-0.9-0.5-1.7-0.6-2.4-0.5
			c-1.5,0.3-2.4,1.9-1.9,3.8c0.4,2,1.7,3,3.2,2.7C228.2,255.2,228.9,254.6,229.4,253.6z"/>
		<path class="st5" d="M233.2,250.6c-0.6-2.8,1.1-4.9,3.3-5.4c2.4-0.5,4.2,0.7,4.7,3.1c0.1,0.3,0.1,0.7,0.1,0.9l-7.2,1.6l-0.2-1.1
			l6.3-1.4l-0.3,0.5c-0.4-2-1.7-2.8-3.2-2.4c-1.6,0.3-2.7,1.8-2.2,3.9c0.5,2.2,2.2,3,4,2.6c1-0.2,1.7-0.7,2.4-1.4l0.7,0.8
			c-0.7,0.7-1.7,1.4-3.1,1.7C236.2,254.7,233.9,253.5,233.2,250.6z"/>
		<path class="st5" d="M246.8,247.5l-3.9-3.4l1.6-0.4l1.8,1.6c0.4,0.4,0.9,0.8,1.3,1.2l0.1,0c0.2-0.5,0.4-1.1,0.6-1.7l0.9-2.1
			l1.5-0.3l-2.1,4.9l4.2,3.6l-1.6,0.4l-1.9-1.6c-0.5-0.4-1-0.9-1.5-1.3l-0.1,0c-0.2,0.6-0.5,1.2-0.7,1.8l-1,2.2l-1.5,0.3
			L246.8,247.5z"/>
		<path class="st5" d="M253.5,244.6c-0.8-3.7,0.5-6.3,3.1-6.8c2.6-0.6,4.9,1.2,5.7,4.9c0.8,3.7-0.5,6.4-3.1,6.9
			C256.6,250.2,254.3,248.3,253.5,244.6z M260.7,243c-0.6-2.9-2.2-4.3-3.9-4c-1.7,0.4-2.5,2.3-1.9,5.2c0.6,2.9,2.2,4.4,3.9,4.1
			C260.6,247.9,261.4,245.9,260.7,243z"/>
		<path class="st5" d="M264.3,239.4l2.4-0.6l4.9-1.1l0.3,1.2l-7.4,1.6L264.3,239.4z M266.6,238.1c-0.5-2.1,0.3-3.7,2.7-4.2
			c0.8-0.2,1.7-0.2,2.5-0.1l-0.1,1.2c-0.8-0.1-1.3-0.1-2.1,0c-1.5,0.3-1.9,1.3-1.6,2.7l2,9.2l-1.4,0.3L266.6,238.1z"/>
		<path class="st5" d="M277.4,240.3c-0.7-3.4,0.2-6.4,2.2-8.8l1,0.6c-1.9,2.5-2.5,5-1.8,7.9s2.2,5,5,6.4l-0.6,0.9
			C280.2,246,278.1,243.6,277.4,240.3z"/>
		<path class="st5" d="M287.9,245.5c1.9-2.5,2.5-5,1.8-7.9c-0.6-2.9-2.2-5-5-6.4l0.6-0.9c2.8,1.3,4.9,3.7,5.7,7.1
			c0.7,3.4-0.2,6.4-2.2,8.8L287.9,245.5z"/>
	</g>
	<g>
		<path class="st5" d="M213.6,27.5c1.9-1.4,4-1,5,0.4c0.5,0.7,0.6,1.5,0.5,2.3l0,0l1-0.8l2.3-1.6l0.7,1l-8.6,6.3l-0.6-0.8l0.7-0.6
			l0,0c-0.9-0.1-1.8-0.5-2.3-1.3C211.2,30.8,211.6,29,213.6,27.5z M215.4,32.9l2.9-2.1c0.1-0.9-0.1-1.5-0.4-2
			c-0.7-1-2.2-1.2-3.6-0.2c-1.4,1-1.8,2.3-1,3.4C213.8,32.5,214.5,32.8,215.4,32.9z"/>
		<path class="st5" d="M223.3,36.4l-2-2.7l0.8-0.6l2.7,3.7l-5.9,4.3l-0.7-1L223.3,36.4z M225.8,33.9c0.5-0.3,1-0.2,1.4,0.2
			c0.3,0.5,0.3,1-0.2,1.4c-0.5,0.3-1,0.2-1.4-0.2C225.3,34.8,225.3,34.2,225.8,33.9z"/>
		<path class="st5" d="M222.1,43.8l1,0c0,1,0.3,2.1,1.1,3.1c0.7,1,1.5,1.2,2,0.8c0.4-0.3,0.6-0.8-0.2-2.6c-0.8-1.8-0.8-2.9,0-3.6
			c0.9-0.7,2.3-0.4,3.5,1.2c0.7,0.9,1,2.1,1,2.9l-1,0c0-0.8-0.3-1.7-0.8-2.4c-0.7-1-1.4-1.1-1.8-0.7c-0.5,0.4-0.4,1,0.3,2.4
			c1,2.3,0.9,3.1-0.1,3.7c-1,0.7-2.4,0.3-3.7-1.3C222.4,46.2,222.1,44.9,222.1,43.8z"/>
		<path class="st5" d="M232.7,47.6l0.6,0.8l-0.7,0.6l0,0c0.9,0.2,1.9,0.7,2.4,1.4c1.2,1.6,0.6,3.3-1.2,4.6c-2,1.5-4.1,1-5.1-0.4
			c-0.4-0.5-0.6-1.4-0.5-2.3l0,0l-1.1,0.9l-2,1.4l-0.7-1L232.7,47.6z M233,54.1c1.3-0.9,1.8-2.1,1-3.2c-0.4-0.5-1.1-0.9-2.1-1.1
			l-2.9,2.1c-0.1,0.9,0.2,1.7,0.5,2.1C230.1,55,231.6,55.2,233,54.1z"/>
		<path class="st5" d="M235.4,59.6l5.8-4.2l-1.5-2.1l0.8-0.6l2.2,3.1l-6.7,4.9c-0.8,0.6-0.9,1.3-0.4,2c0.2,0.3,0.6,0.6,1.1,0.9
			l-0.6,0.8c-0.6-0.4-1-0.7-1.5-1.3C233.8,61.9,234,60.6,235.4,59.6z"/>
		<path class="st5" d="M238.8,65.2c1.3-1,2.9-0.2,5.3,2.7c0.8-0.6,1.2-1.5,0.3-2.6c-0.6-0.8-1.5-1.3-2.2-1.6l0.4-0.9
			c0.8,0.3,2,1,2.8,2c1.2,1.6,0.8,3.1-0.7,4.2l-3.6,2.6l-0.6-0.8l0.7-0.7l0,0c-1-0.3-2-0.8-2.6-1.6C237.8,67.3,237.7,66,238.8,65.2z
			 M241.9,69.5l1.5-1.1c-2-2.4-3.1-2.8-3.9-2.2c-0.7,0.5-0.5,1.3,0,2C240.1,68.8,240.9,69.2,241.9,69.5z"/>
		<path class="st5" d="M240,75.2l1-0.4c0.1,0.2,0.2,0.4,0.3,0.6c0.6,0.8,1.5,0.9,2.4,0.7l0.6-0.1l3.9-7l0.7,1l-2.2,3.8
			c-0.4,0.6-0.8,1.3-1.2,2l0,0c0.7-0.2,1.5-0.4,2.2-0.6l4.2-1.1l0.7,1l-8.3,2c-1.5,0.4-2.9,0.3-3.9-1
			C240.3,75.8,240.1,75.5,240,75.2z"/>
		<path class="st5" d="M254.3,78.8c0.6-0.4,1.3-0.3,1.7,0.2c0.4,0.5,0.3,1.3-0.3,1.7c-0.6,0.4-1.3,0.3-1.7-0.2
			C253.6,80,253.7,79.2,254.3,78.8z M249.9,81.9c0.6-0.4,1.3-0.3,1.7,0.2c0.4,0.5,0.3,1.3-0.3,1.7c-0.6,0.4-1.3,0.3-1.7-0.2
			C249.2,83.1,249.3,82.4,249.9,81.9z"/>
		<path class="st5" d="M264.5,91.5l1.3,1.7l2.5,3.4l-0.8,0.6l-3.7-5.1L264.5,91.5z M266.2,92.8c1.4-1,2.9-1,4.1,0.6
			c0.4,0.6,0.7,1.2,0.9,1.9l-0.9,0.3c-0.1-0.6-0.3-1.1-0.7-1.6c-0.8-1.1-1.7-1-2.6-0.4l-6.4,4.7l-0.7-1L266.2,92.8z"/>
		<path class="st5" d="M267.1,103.3l5.8-4.2l-1.5-2.1l0.8-0.6l2.2,3.1l-6.7,4.9c-0.8,0.6-0.9,1.3-0.4,2c0.2,0.3,0.6,0.6,1.1,0.9
			l-0.6,0.8c-0.6-0.4-1-0.7-1.5-1.3C265.5,105.5,265.7,104.3,267.1,103.3z"/>
		<path class="st5" d="M271.8,107.7c1.9-1.4,4.1-0.8,5.3,0.8c1.2,1.7,0.9,3.5-0.8,4.7c-0.2,0.2-0.5,0.3-0.6,0.4l-3.6-5l0.8-0.6
			l3.2,4.4l-0.5-0.1c1.4-1,1.6-2.2,0.8-3.3c-0.8-1.1-2.3-1.4-3.8-0.4c-1.5,1.1-1.6,2.7-0.6,4c0.5,0.7,1.1,1.1,1.9,1.4l-0.4,0.8
			c-0.8-0.3-1.7-0.8-2.4-1.8C269.8,111.4,269.9,109.1,271.8,107.7z"/>
		<path class="st5" d="M278.8,117.1l1.3-4.1l0.8,1.1l-0.6,1.9c-0.2,0.4-0.4,0.9-0.5,1.4l0,0c0.5,0,1,0,1.5-0.1l1.9-0.1l0.8,1.1
			l-4.4,0l-1.3,4.4l-0.8-1.1l0.6-2c0.1-0.5,0.3-1.1,0.5-1.6l0,0c-0.5,0-1.1,0-1.6,0.1l-2.1,0l-0.8-1.1L278.8,117.1z"/>
		<path class="st5" d="M278.6,127.4c1.2,0.7,2.2,0.7,3.2,0l1-1l-0.5,1.4c-0.4,0-0.6-0.2-0.8-0.5c-0.4-0.5-0.4-1.2,0.2-1.6
			c0.6-0.4,1.2-0.2,1.6,0.3c0.5,0.7,0.2,1.5-0.8,2.2c-1.4,1-3,1-4.5,0L278.6,127.4z M286,122.5c0.6-0.4,1.3-0.3,1.7,0.2
			c0.4,0.5,0.3,1.3-0.3,1.7c-0.6,0.4-1.3,0.3-1.7-0.2C285.3,123.7,285.4,122.9,286,122.5z"/>
	</g>
</g>
</svg>
